# xmcd
#
# Track frame offsets: 
#        150
#        23753
#        42985
#        63250
#        87993
#        113176
#        131634
#        150978
#
# Disc length: 2277 seconds
#
# Revision: 0
# Processed by: cddbd v1.5.2PL0 Copyright (c) Steve Scherf et al.
# Submitted via: ExactAudioCopy v0.99pb4
#
DISCID=5d08e308
DTITLE=Depeche Mode - Some Great Reward Bonus CD
DYEAR=1900
DGENRE=Alt. Rock
TTITLE0=If You Want (Live In Basel 30 November 1984)
TTITLE1=People Are People (Live In Basel 30 November 1984)
TTITLE2=Somebody (Live In Liverpool 29 September1984)
TTITLE3=Blasphemous Rumours (Live In Basel 30 November 1984)
TTITLE4=Master And Servant (Live In Basel 30 November 1984)
TTITLE5=In Your Memory
TTITLE6=(Set Me Free) Remotivate Me
TTITLE7=Somebody
EXTD=
EXTT0=
EXTT1=
EXTT2=
EXTT3=
EXTT4=
EXTT5=
EXTT6=
EXTT7=
PLAYORDER=
